<svg xmlns="http://www.w3.org/2000/svg" viewBox="0 0 1230 1050" width="100%" height="100%">
  <defs>
    <style>
      .bg { fill: #ffffff; }
      .b { fill: none; stroke: #222222; stroke-width: 2.5; stroke-linejoin: round; }
      .t { font-family: 'Arial', sans-serif; fill: #111111; text-anchor: middle; font-size: 14px; }
      .t-sm { font-family: 'Arial', sans-serif; fill: #111111; text-anchor: middle; font-size: 11px; }
      .t-lg { font-family: 'Arial', sans-serif; fill: #111111; text-anchor: middle; font-size: 28px; font-weight: bold; }
    </style>
  </defs>

  <rect class="bg" width="1230" height="1050" />

  <path class="b" d="M 40,210 L 1160,210 L 1190,1000 L 220,1000 C 120,1000 60,800 40,210 Z" />

  <path class="b" d="M 75,225 L 205,225 L 205,480 L 185,480 L 185,500 L 75,500 C 70,400 65,300 75,225 Z" />
  <text x="140" y="335" class="t-sm">College of</text>
  <text x="140" y="350" class="t-sm">Sports Sciences</text>
  <text x="140" y="375" class="t-sm">Physical Ed. / GYM</text>

  <path class="b" d="M 260,440 L 310,440 L 310,590 L 260,590 Z" />

  <path class="b" d="M 80,515 Q 135,530 205,515 L 205,600 Q 135,620 100,600 Z" />

  <path class="b" d="M 200,870 L 250,905 L 230,940 L 180,910 Z" />
  <text x="215" y="910" class="t">C4</text>

  <path class="b" d="M 120,670 L 145,670 L 215,830 L 175,860 Z" />

  <rect x="260" y="930" width="115" height="35" rx="3" class="b"/>
  <text x="317" y="952" class="t-sm">University Registrar</text>


  <rect x="230" y="240" width="80" height="160" rx="2" class="b"/>
  <text x="270" y="315" class="t">Executive</text>
  <text x="270" y="335" class="t">Building</text>

  <path class="b" d="M 320,330 L 320,390 L 360,390 L 360,410 L 390,410 L 390,390 L 420,390 L 420,330 Z" />
  <text x="370" y="355" class="t">Research</text>
  <text x="370" y="375" class="t">Center</text>

  <path class="b" d="M 430,335 L 430,390 L 470,390 L 470,375 L 495,375 L 495,390 L 525,390 L 525,335 Z" />
  <text x="477" y="355" class="t">College of</text>
  <text x="477" y="375" class="t">Law</text>

  <path class="b" d="M 240,780 L 240,840 L 320,840 L 320,860 L 390,860 L 390,830 L 410,830 L 410,800 L 400,800 L 400,730 L 350,730 L 350,680 L 320,680 L 320,750 L 260,750 L 260,780 Z" />
  <text x="325" y="795" class="t-sm">Administration Building</text>


  <path class="b" d="M 490,235 L 670,235 L 670,295 L 650,295 L 650,315 L 610,315 L 610,295 L 590,295 L 590,315 L 560,315 L 560,295 L 500,295 L 500,255 L 490,255 Z" />
  <text x="580" y="255" class="t">College of</text>
  <text x="580" y="275" class="t">Liberal Arts</text>

  <rect x="530" y="345" width="20" height="40" class="b"/>
  <text x="540" y="370" class="t-sm">C3</text>

  <rect x="555" y="340" width="70" height="65" rx="2" class="b"/>
  <text x="590" y="375" class="t">CPADS</text>

  <path class="b" d="M 680,230 L 1030,230 L 1030,280 L 990,280 L 990,300 L 960,300 L 960,280 L 880,280 L 880,360 L 850,360 L 850,310 L 810,310 L 810,290 L 760,290 L 760,310 L 730,310 L 730,280 L 680,280 Z" />
  <text x="855" y="260" class="t">College of Engineering</text>

  <rect x="660" y="370" width="45" height="35" rx="2" class="b"/>
  <rect x="715" y="370" width="45" height="35" rx="2" class="b"/>
  <rect x="805" y="375" width="80" height="30" rx="2" class="b"/>

  <path class="b" d="M 645,540 L 935,540 L 935,885 L 730,885 Q 710,690 645,540 Z" />
  <text x="810" y="720" class="t-lg">Field</text>
  <rect x="740" y="550" width="105" height="35" class="b"/>

  <circle cx="605" cy="680" r="35" class="b"/>
  <path class="b" d="M 590,645 L 620,645 L 620,610 L 590,610 Z" />
  <rect x="555" y="730" width="95" height="55" rx="2" class="b"/>

  <path class="b" d="M 515,800 L 690,800 L 690,870 L 660,870 L 660,885 L 540,885 L 540,870 L 515,870 Z" />
  <text x="602" y="830" class="t">College of Teacher</text>
  <text x="602" y="855" class="t">Education</text>


  <path class="b" d="M 1040,230 L 1120,230 L 1120,350 L 1080,350 L 1060,310 L 1040,310 Z" />
  <rect x="1045" y="375" width="105" height="40" rx="2" class="b"/>

  <rect x="980" y="470" width="160" height="150" rx="2" class="b"/>
  <text x="1060" y="550" class="t">Covered Court</text>

  <rect x="975" y="640" width="25" height="40" class="b"/>
  <text x="987" y="665" class="t-sm">C2</text>
  <rect x="1005" y="640" width="140" height="40" rx="2" class="b"/>

  <rect x="1000" y="700" width="155" height="155" rx="2" class="b"/>
  <text x="1077" y="760" class="t">College of</text>
  <text x="1077" y="785" class="t">Home Economics</text>

  <rect x="730" y="925" width="190" height="55" rx="2" class="b"/>
  <text x="825" y="960" class="t-lg">C1</text>

  <rect x="1000" y="920" width="170" height="55" rx="2" class="b"/>
  <text x="1085" y="952" class="t">College of Nursing</text>

  <rect x="930" y="960" width="20" height="20" rx="1" class="b"/>
  <rect x="970" y="965" width="15" height="15" rx="1" class="b"/>


  <g transform="rotate(-8 68 641)">
    <rect x="58" y="623" width="20" height="36" class="bg"/>
    <line x1="58" y1="623" x2="78" y2="623" class="b"/>
    <line x1="58" y1="659" x2="78" y2="659" class="b"/>
    <text x="68" y="645" class="t-sm" transform="rotate(90 68 641)">Gate 1</text>
  </g>

  <g>
    <rect x="465" y="990" width="50" height="20" class="bg"/>
    <line x1="465" y1="990" x2="465" y2="1010" class="b"/>
    <line x1="515" y1="990" x2="515" y2="1010" class="b"/>
    <text x="490" y="1004" class="t-sm">Gate 2</text>
  </g>

  <g>
    <rect x="680" y="990" width="45" height="20" class="bg"/>
    <line x1="680" y1="990" x2="680" y2="1010" class="b"/>
    <line x1="725" y1="990" x2="725" y2="1010" class="b"/>
    <text x="702.5" y="1004" class="t-sm">Gate 3</text>
  </g>
</svg>
