<svg viewBox="0 0 800 600" xmlns="http://www.w3.org/2000/svg">
  <rect width="800" height="600" fill="white" />
  
  <style>
    .outline { fill: none; stroke: black; stroke-width: 2; }
    .text-label { font-family: Arial, sans-serif; font-size: 14px; text-anchor: middle; }
    .small-text { font-family: Arial, sans-serif; font-size: 10px; text-anchor: middle; }
  </style>

  <g transform="translate(80, 50)">
    <rect x="0" y="0" width="600" height="80" class="outline" />
    
    <line x1="60" y1="0" x2="60" y2="80" class="outline" />
    <line x1="120" y1="0" x2="120" y2="80" class="outline" />
    <line x1="180" y1="0" x2="180" y2="80" class="outline" />
    <line x1="240" y1="0" x2="240" y2="80" class="outline" />
    <line x1="300" y1="0" x2="300" y2="80" class="outline" />
    <line x1="360" y1="0" x2="360" y2="80" class="outline" />
    <line x1="460" y1="0" x2="460" y2="80" class="outline" />
    <line x1="530" y1="0" x2="530" y2="80" class="outline" />

    <text x="30" y="45" class="text-label">Trash</text>
    <circle cx="90" cy="40" r="25" class="outline" />
    <circle cx="150" cy="40" r="25" class="outline" />
    <circle cx="210" cy="40" r="25" class="outline" />
    <circle cx="270" cy="40" r="25" class="outline" />
    <circle cx="330" cy="40" r="25" class="outline" />
    
    <circle cx="410" cy="40" r="45" class="outline" fill="white" />
    <circle cx="410" cy="40" r="35" class="outline" />
    <text x="410" y="38" class="small-text">outdoor</text>
    <text x="410" y="52" class="small-text">sink</text>
    
    <circle cx="495" cy="40" r="25" class="outline" />
    <circle cx="565" cy="40" r="25" class="outline" />
  </g>

  <g transform="translate(90, 170)">
    <rect x="0" y="0" width="35" height="35" rx="5" class="outline" />
    <rect x="50" y="0" width="35" height="35" rx="5" class="outline" />
    <rect x="100" y="0" width="35" height="35" rx="5" class="outline" />
    <rect x="150" y="0" width="35" height="35" rx="5" class="outline" />
    <rect x="200" y="0" width="35" height="35" rx="5" class="outline" />
    <rect x="250" y="0" width="35" height="35" rx="5" class="outline" />
    <rect x="300" y="0" width="35" height="35" rx="5" class="outline" />
    <rect x="350" y="0" width="35" height="35" rx="5" class="outline" />
    <rect x="400" y="0" width="35" height="35" rx="5" class="outline" />
    <rect x="450" y="0" width="35" height="35" rx="5" class="outline" />
    <rect x="500" y="0" width="35" height="35" rx="5" class="outline" />
    <rect x="550" y="0" width="40" height="85" class="outline" />
    <rect x="600" y="0" width="40" height="85" class="outline" />

    <rect x="0" y="50" width="35" height="35" rx="5" class="outline" />
    <rect x="50" y="50" width="35" height="35" rx="5" class="outline" />
    <rect x="100" y="50" width="35" height="35" rx="5" class="outline" />
    <rect x="150" y="50" width="35" height="35" rx="5" class="outline" />
    <rect x="200" y="50" width="35" height="35" rx="5" class="outline" />
    <rect x="250" y="50" width="35" height="35" rx="5" class="outline" />
    <rect x="300" y="50" width="35" height="35" rx="5" class="outline" />
    <rect x="350" y="50" width="35" height="35" rx="5" class="outline" />
    <rect x="400" y="50" width="35" height="35" rx="5" class="outline" />
    <rect x="450" y="50" width="35" height="35" rx="5" class="outline" />
    <rect x="500" y="50" width="35" height="35" rx="5" class="outline" />
  </g>

  <g transform="translate(85, 310)">
    <rect x="0" y="0" width="50" height="80" class="outline" />
    <text x="25" y="45" class="text-label">C1</text>
    
    <rect x="50" y="0" width="50" height="80" class="outline" />
    <text x="75" y="45" class="text-label">C2</text>
    
    <rect x="100" y="0" width="50" height="80" class="outline" />
    <text x="125" y="45" class="text-label">C3</text>
    
    <rect x="150" y="0" width="45" height="80" class="outline" />
    <text x="172" y="45" class="text-label">C4</text>
    
    <rect x="195" y="0" width="70" height="140" class="outline" />
    <text x="230" y="60" class="text-label">C5</text>
    
    <rect x="265" y="0" width="70" height="140" class="outline" />
    <text x="300" y="60" class="text-label">C6</text>
    
    <rect x="335" y="0" width="70" height="140" class="outline" />
    <text x="370" y="60" class="text-label">C7</text>
    
    <rect x="405" y="0" width="70" height="140" class="outline" />
    <text x="440" y="60" class="text-label">C8</text>
    
    <rect x="475" y="0" width="70" height="140" class="outline" />
    <text x="510" y="60" class="text-label">C9</text>
    
    <rect x="545" y="0" width="70" height="140" class="outline" />
    <text x="580" y="60" class="text-label">C10</text>
    
    <rect x="615" y="0" width="70" height="140" class="outline" />
    <text x="650" y="60" class="text-label">C11</text>
  </g>
</svg>
